HIERARCHY
ROOT Hips
{
	OFFSET 0.00000 0.00000 0.00000
	CHANNELS 6 Xposition Yposition Zposition Zrotation Yrotation Xrotation 
	JOINT RightUpLegDummy
	{
		OFFSET 0 0 0
		CHANNELS 3 Zrotation Yrotation Xrotation
		JOINT RightUpLeg
		{
			OFFSET -3.52197 -3.41223 0.04002
			CHANNELS 3 Zrotation Yrotation Xrotation
			JOINT RightLeg
			{
				OFFSET 0.00006 -17.42390 1.60435
				CHANNELS 3 Zrotation Yrotation Xrotation
				JOINT RightFoot
				{
					OFFSET 0.06153 -16.50078 -1.63901
					CHANNELS 3 Zrotation Yrotation Xrotation
					JOINT RightToes
					{
						OFFSET 0.00298 -1.73825 3.34613
						CHANNELS 3 Zrotation Yrotation Xrotation
						End Site
						{
							OFFSET 0.00480 -0.05416 3.85043
						}
					}
				}
			}
		}
	}
	JOINT SpineDummy
	{
		OFFSET 0 0 0
		CHANNELS 3 Zrotation Yrotation Xrotation
		JOINT Spine
		{
			OFFSET 0.00000 4.68130 0.00000
			CHANNELS 3 Zrotation Yrotation Xrotation
			JOINT Spine1
			{
				OFFSET -0.00000 10.10138 0.05002
				CHANNELS 3 Zrotation Yrotation Xrotation
				JOINT HEadDummy
				{
					OFFSET 0 0 0
					CHANNELS 3 Zrotation Yrotation Xrotation
					JOINT Head
					{
						OFFSET -0.00000 3.43865 0.00438
						CHANNELS 3 Zrotation Yrotation Xrotation
						End Site
						{
							OFFSET -0.11417 5.02924 0.98962
						}
					}
				}
				JOINT LeftShoulder1Dummy
				{
					OFFSET 0 0 0
					CHANNELS 3 Zrotation Yrotation Xrotation
					JOINT LeftShoulder1
					{
						OFFSET 3.53937 -0.14262 -0.08662
						CHANNELS 3 Zrotation Yrotation Xrotation
						JOINT LeftArm
						{
							OFFSET 4.04833 -0.00133 0.12681
							CHANNELS 3 Zrotation Yrotation Xrotation
							JOINT LeftForeArm
							{
								OFFSET 10.33880 -0.01036 -0.55515
								CHANNELS 3 Zrotation Yrotation Xrotation
								JOINT LeftHand
								{
									OFFSET 8.69677 0.07543 0.40060
									CHANNELS 3 Zrotation Yrotation Xrotation
									End Site
									{
										OFFSET 5.28377 -0.21905 0.59205
									}
								}
							}
						}
					}
				}
				JOINT RightShoulderDummy
				{
					OFFSET 0 0 0
					CHANNELS 3 Zrotation Yrotation Xrotation
					JOINT RightShoulder
					{
						OFFSET -3.53937 -0.14262 -0.08660
						CHANNELS 3 Zrotation Yrotation Xrotation
						JOINT RightArm
						{
							OFFSET -4.04833 -0.00133 0.12683
							CHANNELS 3 Zrotation Yrotation Xrotation
							JOINT RightForeArm
							{
								OFFSET -10.37987 -0.01039 -0.55511
								CHANNELS 3 Zrotation Yrotation Xrotation
								JOINT RightHand
								{
									OFFSET -8.67398 0.07538 0.40058
									CHANNELS 3 Zrotation Yrotation Xrotation
									End Site
									{
										OFFSET -5.24810 -0.21916 0.59204
									}
								}
							}
						}
					}
				}
			}
		}
	}
	JOINT LeftUpLegDummy
	{
		OFFSET 0 0 0
		CHANNELS 3 Zrotation Yrotation Xrotation
		JOINT LeftUpLeg
		{
			OFFSET 3.52197 -3.41223 0.04002
			CHANNELS 3 Zrotation Yrotation Xrotation
			JOINT LeftLeg
			{
				OFFSET -0.00012 -17.42399 1.60337
				CHANNELS 3 Zrotation Yrotation Xrotation
				JOINT LeftFoot
				{
					OFFSET -0.09972 -16.50070 -1.63802
					CHANNELS 3 Zrotation Yrotation Xrotation
					JOINT LeftToes
					{
						OFFSET -0.01575 -1.73823 3.34611
						CHANNELS 3 Zrotation Yrotation Xrotation
						End Site
						{
							OFFSET 0.03150 -0.01868 3.85031
						}
					}
				}
			}
		}
	}
}
MOTION
Frames: 8
Frame Time: 0.033333
-0.0775 38.7428 28.5601 -0.1982 0.7415 -4.7087 0.0000 0.0000 0.0000 3.6212 2.0396 -15.0402 -0.3788 -12.1671 -1.2698 4.5130 -0.4996 1.7761 0.0000 -0.0000 0.0000 0.0000 0.0000 0.0000 -4.1609 -1.4443 7.6947 6.3130 -2.8776 1.4941 -0.0000 0.0000 -0.0000 -1.0468 -0.6006 4.5338 -0.0000 0.0000 -0.0000 -34.5732 -2.7523 2.5406 -43.4209 -21.1664 -11.7497 -12.9854 5.3424 41.7261 15.9960 -5.1388 -1.4149 -0.0000 0.0000 -0.0000 35.3844 5.2736 3.6351 40.4143 0.9885 -18.1957 10.4198 -2.0460 24.3950 -10.8734 2.1486 -0.6884 0.0000 0.0000 0.0000 -0.7558 8.3708 16.8120 -3.4325 -2.9530 12.7145 -0.6228 0.0691 -15.3463 0.0000 0.0000 -0.0000
-0.0740 38.6574 30.0404 -0.5812 1.2676 -5.1943 0.0000 0.0000 0.0000 4.6454 2.4447 -14.7362 -1.4397 -11.6276 2.9491 -0.8629 0.1289 4.3668 0.0000 -0.0000 0.0000 0.0000 0.0000 0.0000 -3.6366 -1.8685 7.2267 6.7393 -3.3735 1.8690 -0.0000 0.0000 -0.0000 -1.5046 -0.4801 5.1675 -0.0000 0.0000 -0.0000 -34.9162 -2.7536 2.5630 -43.8339 -19.0062 -14.6045 -11.7838 5.2464 43.1384 15.3806 -4.6601 -1.2982 -0.0000 0.0000 -0.0000 35.5050 5.2917 3.6534 39.9104 0.6073 -19.0642 10.1392 -3.7447 25.3595 -11.0320 1.9469 -0.6811 0.0000 0.0000 0.0000 2.2490 13.9662 18.4054 -4.5198 -9.8224 16.3192 -0.9279 0.0600 -13.8171 0.0000 0.0000 -0.0000
-0.0653 38.5257 31.4711 -1.4476 1.7244 -5.8126 0.0000 0.0000 0.0000 5.6695 2.5477 -14.7215 -2.4068 -11.3587 8.0653 -2.3986 0.3743 5.5147 0.0000 -0.0000 0.0000 0.0000 0.0000 0.0000 -2.3302 -2.0852 7.1671 7.0740 -3.6117 1.8625 -0.0000 0.0000 -0.0000 -2.3500 -0.7903 6.1319 -0.0000 0.0000 -0.0000 -35.0766 -2.7986 2.5916 -44.6212 -16.3395 -17.2714 -10.6808 5.2623 43.0627 14.5211 -4.0817 -1.1541 -0.0000 0.0000 -0.0000 35.5542 5.2918 3.6579 39.3442 0.0620 -20.0086 9.8291 -4.9934 25.7179 -10.8574 1.7227 -0.6508 0.0000 0.0000 0.0000 5.2411 16.2602 18.0873 -6.5121 -12.7704 23.2346 -3.2024 0.0712 -11.4716 0.0000 0.0000 -0.0000
-0.0383 38.3783 32.7776 -2.5347 1.4523 -6.3222 0.0000 0.0000 0.0000 6.8040 2.3946 -14.6086 -2.9393 -11.0814 12.7577 -1.7519 0.2614 4.5040 0.0000 -0.0000 0.0000 0.0000 0.0000 0.0000 -0.4213 -1.8287 7.7019 7.1864 -3.2859 1.2321 -0.0000 0.0000 -0.0000 -3.1803 -1.2536 7.2066 -0.0000 0.0000 -0.0000 -34.7959 -2.7931 2.5714 -45.8096 -13.3378 -18.8089 -10.1487 5.2906 42.1883 13.6965 -3.5850 -1.0310 -0.0000 0.0000 -0.0000 35.4848 5.2793 3.6465 38.8111 -0.2322 -20.8798 9.5020 -5.6634 25.8021 -10.4045 1.4686 -0.6020 0.0000 0.0000 0.0000 7.4197 15.9505 15.3076 -8.6239 -11.5095 32.7843 -7.8512 0.4444 -5.7760 0.0000 0.0000 -0.0000
-0.0259 38.2018 33.9337 -3.3668 0.8936 -6.6651 0.0000 0.0000 0.0000 7.9544 2.1367 -14.5398 -3.3310 -10.4080 17.1127 -2.7705 0.3189 1.7846 0.0000 -0.0000 0.0000 0.0000 0.0000 0.0000 1.0954 -1.3157 8.8114 7.3668 -2.6766 0.1677 -0.0000 0.0000 -0.0000 -3.4596 -1.7541 8.2718 -0.0000 0.0000 -0.0000 -34.2378 -2.7391 2.5140 -46.8699 -10.3259 -18.9311 -10.3360 5.2920 42.0418 12.5835 -3.5555 -0.9407 -0.0000 0.0000 -0.0000 35.3231 5.2529 3.6211 38.3849 -0.0045 -21.2703 9.3227 -5.6080 25.9102 -10.0871 1.3367 -0.5726 0.0000 0.0000 0.0000 8.5580 15.0055 10.4132 -9.3075 -8.5259 43.5268 -11.7794 1.5434 3.9000 0.0000 0.0000 -0.0000
-0.0465 38.0214 34.9984 -3.6824 0.8779 -7.0565 0.0000 0.0000 0.0000 8.6938 1.9671 -14.3824 -4.0247 -10.0429 21.2432 -5.0398 0.4259 -1.5803 0.0000 -0.0000 0.0000 0.0000 0.0000 0.0000 1.6044 -0.9032 10.1817 7.7612 -2.2161 -0.7720 -0.0000 0.0000 -0.0000 -3.0948 -2.4854 9.1680 -0.0000 0.0000 -0.0000 -33.8697 -2.7259 2.4854 -47.0997 -7.7925 -18.2586 -10.8928 5.2566 43.1792 11.0560 -4.1590 -0.8745 -0.0000 0.0000 -0.0000 35.2515 5.2345 3.6071 37.9952 0.6856 -20.9607 9.4473 -5.5807 25.6638 -10.1427 1.4525 -0.5852 0.0000 0.0000 0.0000 8.5144 13.1800 4.5521 -8.1208 -5.2466 53.2439 -11.8845 2.4581 12.8982 0.0000 0.0000 -0.0000
-0.0586 37.9592 36.1307 -3.5669 1.3127 -7.5817 0.0000 0.0000 0.0000 8.8271 1.7049 -13.2871 -4.8109 -10.0871 24.1074 -5.6685 0.3143 -4.7485 0.0000 -0.0000 0.0000 0.0000 0.0000 0.0000 1.6144 -0.6203 11.1315 7.9169 -1.9179 -0.9915 -0.0000 0.0000 -0.0000 -2.3765 -3.5214 9.7435 -0.0000 0.0000 -0.0000 -33.8111 -2.7633 2.4966 -46.4509 -6.1208 -17.7954 -11.2905 5.2130 44.6652 9.9336 -4.9902 -0.8475 -0.0000 0.0000 -0.0000 35.4195 5.2566 3.6312 37.5351 1.7426 -20.1547 9.7908 -5.1225 24.9337 -10.4529 1.6776 -0.6221 0.0000 0.0000 0.0000 7.6814 11.0059 -1.1009 -5.2418 -2.6114 60.4443 -8.8775 2.0522 15.6749 0.0000 0.0000 -0.0000
-0.0329 38.0339 37.3799 -3.1797 1.4925 -8.0399 0.0000 0.0000 0.0000 8.5221 1.1669 -11.1897 -5.0797 -9.7806 25.3794 -4.7608 0.1294 -7.5656 0.0000 -0.0000 0.0000 0.0000 0.0000 0.0000 1.7129 -0.2648 11.3831 7.4867 -1.5109 -0.5699 -0.0000 0.0000 -0.0000 -1.5646 -4.6474 10.1905 -0.0000 0.0000 -0.0000 -33.7228 -2.7709 2.4941 -45.5570 -5.2822 -18.2315 -11.1958 5.1948 45.3852 10.0966 -5.3302 -0.8888 -0.0000 0.0000 -0.0000 35.6276 5.2939 3.6653 37.1552 3.1521 -19.1397 10.1718 -3.8108 24.1398 -10.8490 1.8302 -0.6594 0.0000 0.0000 0.0000 6.4356 9.1416 -6.2046 -0.6622 -0.4962 64.4857 -4.9557 0.9750 12.4140 0.0000 0.0000 -0.0000
